<?xml version="1.0" encoding="UTF-8" standalone="no"?>
<svg
   width="1024"
   height="1024"
   version="1.1"
   id="svg46"
   sodipodi:docname="logo.svg"
   inkscape:version="1.3.2 (091e20ef0f, 2023-11-25, custom)"
   xmlns:inkscape="http://www.inkscape.org/namespaces/inkscape"
   xmlns:sodipodi="http://sodipodi.sourceforge.net/DTD/sodipodi-0.dtd"
   xmlns="http://www.w3.org/2000/svg"
   xmlns:svg="http://www.w3.org/2000/svg">
  <defs
     id="defs46" />
  <sodipodi:namedview
     id="namedview46"
     pagecolor="#ffffff"
     bordercolor="#000000"
     borderopacity="0.25"
     inkscape:showpageshadow="2"
     inkscape:pageopacity="0.0"
     inkscape:pagecheckerboard="0"
     inkscape:deskcolor="#d1d1d1"
     inkscape:zoom="0.5546875"
     inkscape:cx="512"
     inkscape:cy="512"
     inkscape:window-width="1440"
     inkscape:window-height="831"
     inkscape:window-x="0"
     inkscape:window-y="0"
     inkscape:window-maximized="1"
     inkscape:current-layer="svg46" />
  <path
     fill="#D16143"
     d="M0 0L1024 0L1024 1024L0 1024L0 0Z"
     id="path1" />
  <path
     fill="#079EC6"
     d="M621.4 605.497C616.724 606.903 599.129 606.287 593.53 606.122C592.018 606.078 591.526 606.195 590.463 605.067L590.644 604.055C590.918 603.89 591.172 603.687 591.465 603.559C593.641 602.602 616.181 603.198 618.968 603.934L621.4 605.497Z"
     id="path2" />
  <path
     fill="#B24434"
     d="M616.12 842.26C626.17 843.564 637.193 842.62 647.359 842.494C647.238 844.447 647.07 846.409 647.05 848.366C641.158 848.342 627.263 847.437 622.041 848.63L616.12 842.26Z"
     id="path3" />
  <path
     fill="#B24434"
     d="M638.809 765.016C641.626 764.716 644.48 764.576 647.307 764.369L647.445 778.04Q645.219 778.028 642.995 777.912C637.811 777.636 616.108 776.717 613.303 773.602C614.928 770.9 634.586 766.231 638.809 765.016Z"
     id="path4" />
  <path
     fill="#098097"
     d="M416.797 533.618C419.752 539.091 422.427 544.697 425.323 550.197C403.22 558.961 381.462 569.252 359.776 579.029C349.915 583.475 335.505 588.838 326.792 594.586Q323.647 584.974 320.154 575.483Q352.276 560.591 384.885 546.799C395.47 542.308 406.301 538.286 416.797 533.618Z"
     id="path5" />
  <path
     fill="#FBFBFA"
     d="M804.843 142.882C806.853 143.255 808.73 143.486 810.775 143.504C809.525 148.074 808.072 152.668 807.021 157.283C800.778 177.73 793.295 197.976 786.398 218.226L745.386 338.002Q732.354 376.944 718.854 415.727C714.673 427.902 711.063 440.558 706.07 452.412C704.314 453.701 700.496 453.027 698.335 452.839L747.987 308.997L779.06 217.354C787.45 192.495 795.471 167.384 804.843 142.882Z"
     id="path6" />
  <path
     fill="#FBFBFA"
     d="M822.828 141.011L880.304 306.953C882.424 312.905 886.624 329.666 889.555 333.713C891.748 341.387 894.692 348.879 897.348 356.404L913.619 402.1L924.033 432.626C925.751 437.698 927.195 443.335 929.479 448.146L930.769 453.115Q929.858 453.293 928.933 453.36Q928.008 453.427 927.081 453.382Q926.154 453.338 925.24 453.182Q924.325 453.026 923.436 452.762C920.696 444.022 917.272 435.378 914.16 426.756Q906.958 406.767 900.016 386.686L888.955 354.689C886.319 347.112 883.805 339.238 880.316 332.006C877.844 321.12 872.885 310.328 869.388 299.694C862.716 279.412 855.457 259.381 848.483 239.209L831.742 189.381Q827.383 176.442 822.859 163.56C820.484 156.903 817.718 150.201 816.138 143.306C817.524 142.145 821.026 141.586 822.828 141.011Z"
     id="path7" />
  <path
     fill="#FBFBFA"
     d="M212.426 305.642C214.333 306.023 215.508 306.021 217.007 307.295C218.147 310 216.961 313.795 217.088 316.763C212.679 326.999 210.017 337.962 206.353 348.487Q191.32 391.444 177.217 434.716Q140.042 548.632 101.136 661.969L95.9578 662.014L93.2678 661.99Q131.97 549.204 168.955 435.844Q182.432 395.24 196.35 354.785C201.869 338.498 207.819 322.209 212.426 305.642Z"
     id="path8" />
  <path
     fill="#FBFBFA"
     d="M225.608 323.846C225.517 320.725 224.67 308.314 226.084 306.393C231.694 313.896 236.646 334.618 240.107 344.461L283.292 470.336C287.895 484.856 293.075 499.256 298.219 513.594L300.086 519.226L304.297 530.947L305.981 535.79L310.789 548.625L311.922 552.35C314.653 560.051 317.219 567.861 320.154 575.483Q323.647 584.974 326.792 594.586C330.226 605.598 334.423 616.391 338.165 627.304C342.117 638.827 345.643 650.59 349.882 662.001C348.603 662.063 346.861 661.954 345.667 662.338C344.431 662.303 343.213 662.114 341.99 661.952C337.118 651.173 333.714 639.543 330.026 628.314C326.536 617.69 322.692 607.014 319.881 596.191L313.589 578.4Q302.638 548.431 292.045 518.333C286.659 503.433 280.538 488.483 276.219 473.248C273.171 463.076 269.297 453.064 265.921 442.986L237.52 359.107C234.126 348.989 227.265 333.493 225.608 323.846Z"
     id="path9" />
  <path
     fill="#079EC6"
     d="M889.555 333.713Q908.165 340.511 926.981 346.713C936.022 349.621 946.042 351.952 954.619 356C945.085 386.342 938.657 417.683 929.479 448.146C927.195 443.335 925.751 437.698 924.033 432.626L913.619 402.1L897.348 356.404C894.692 348.879 891.748 341.387 889.555 333.713Z"
     id="path10" />
  <path
     fill="#098097"
     d="M489.446 817.276C498.478 816.74 507.649 817.017 516.702 817.012C523.04 817.009 529.674 816.612 535.963 817.258C544.064 817.803 552.381 817.474 560.506 817.458C571.113 817.436 581.784 817.603 592.376 816.998C592.39 825.346 592.498 833.705 592.387 842.052L429.654 842.009C429.42 833.689 429.582 825.328 429.581 817.004C440.771 817.441 452.047 817.279 463.251 817.357C471.925 817.417 480.792 817.819 489.446 817.276Z"
     id="path11" />
  <path
     fill="#EF742D"
     d="M349.882 662.001C356.599 662.071 363.58 662.264 370.261 661.536Q369.566 663.416 368.825 665.278Q368.085 667.14 367.298 668.983Q366.512 670.827 365.681 672.65Q364.851 674.474 363.975 676.276Q363.1 678.079 362.181 679.86Q361.262 681.641 360.299 683.398Q359.337 685.156 358.332 686.89Q357.327 688.624 356.279 690.332Q355.232 692.041 354.144 693.723Q353.055 695.406 351.925 697.061Q350.796 698.716 349.626 700.344Q348.456 701.971 347.247 703.569Q346.038 705.167 344.79 706.735Q343.542 708.303 342.257 709.84Q340.971 711.377 339.648 712.882Q338.325 714.388 336.965 715.86Q335.606 717.332 334.211 718.771Q332.815 720.209 331.386 721.614Q329.956 723.018 328.492 724.386Q327.028 725.755 325.531 727.088Q324.035 728.42 322.506 729.716Q320.977 731.011 319.416 732.269Q317.856 733.526 316.266 734.745Q314.675 735.964 313.055 737.144Q311.436 738.324 309.787 739.464Q308.139 740.604 306.463 741.703Q304.788 742.802 303.086 743.86Q301.384 744.918 299.657 745.934Q297.929 746.95 296.177 747.924Q294.426 748.897 292.651 749.827Q290.876 750.757 289.079 751.644Q287.281 752.531 285.463 753.373C255.129 767.134 230.346 770.85 197.173 766.496C189.45 765.483 180.669 764.426 173.415 761.645C172.66 761.356 172.028 761.019 171.326 760.623C177.553 759.306 184.432 759.349 190.796 758.456Q193.18 758.144 195.556 757.781Q197.933 757.417 200.301 757.002Q202.669 756.587 205.027 756.12Q207.385 755.653 209.733 755.135Q212.081 754.617 214.416 754.048Q216.752 753.479 219.075 752.859Q221.398 752.239 223.706 751.569Q226.015 750.898 228.309 750.178Q230.602 749.457 232.879 748.687Q235.157 747.916 237.417 747.096Q239.677 746.276 241.918 745.407Q244.16 744.538 246.382 743.621Q248.604 742.703 250.805 741.737Q253.007 740.771 255.187 739.758Q257.367 738.744 259.524 737.683Q261.682 736.622 263.815 735.515Q265.949 734.407 268.058 733.253Q270.167 732.099 272.25 730.899Q274.334 729.7 276.391 728.455Q278.447 727.21 280.476 725.921Q282.505 724.631 284.506 723.298Q286.506 721.965 288.477 720.588Q290.448 719.212 292.389 717.792Q294.329 716.373 296.238 714.912Q298.148 713.451 300.024 711.948Q301.901 710.446 303.745 708.903Q305.588 707.36 307.398 705.777Q309.207 704.194 310.982 702.572Q312.756 700.95 314.495 699.29Q316.234 697.63 317.936 695.932Q319.638 694.234 321.303 692.5Q322.967 690.765 324.594 688.995C332.274 680.605 338.838 671.41 345.667 662.338C346.861 661.954 348.603 662.063 349.882 662.001Z"
     id="path12" />
  <path
     fill="#0C1E44"
     d="M512.519 58.3873C521.141 68.1095 529.245 78.2627 537.658 88.1625C542.572 93.944 549.519 100.111 553.052 106.725C554.598 109.619 555.31 113.214 555.149 116.477C554.506 129.516 541.477 143.778 536.171 155.569C520.882 155.124 505.372 155.454 490.075 155.659C482.551 144.423 467.582 126.329 470.591 111.986C471.151 109.318 472.22 106.869 473.717 104.598C477.349 99.0859 482.49 94.2107 486.767 89.1759Q499.721 73.8471 512.519 58.3873Z"
     id="path13" />
  <path
     fill="#098097"
     d="M536.171 155.569C540.317 155.535 549.573 154.335 552.624 157.046C555.967 160.016 554.832 167.316 555 171.31C555.161 180.935 555.443 190.775 554.987 200.392Q554.894 212.573 555.008 224.754C555.026 229.056 555.406 233.761 554.772 238.01C554.479 239.974 554.063 241.598 552.802 243.151C548.006 245.159 540.711 243.945 535.524 243.933C520.048 243.837 504.414 243.335 488.949 244.001Q481.779 244.111 474.611 243.909C473.576 243.297 472.171 242.505 471.387 241.563C468.81 238.468 469.893 231.944 469.89 228.106Q469.494 214.984 469.889 201.862C469.911 187.849 469.678 173.813 470.045 159.804C470.619 158.831 471.222 157.699 472.064 156.933C475.278 154.008 485.919 155.632 490.075 155.659C505.372 155.454 520.882 155.124 536.171 155.569Z"
     id="path14" />
  <path
     fill="#33BDC3"
     d="M508.539 174.159C513.448 173.468 518.891 174.101 523.251 176.517C528.429 179.387 532.044 184.444 533.627 190.098Q533.79 190.664 533.923 191.238Q534.056 191.811 534.159 192.391Q534.263 192.971 534.335 193.556Q534.408 194.14 534.451 194.728Q534.493 195.315 534.505 195.904Q534.517 196.493 534.498 197.082Q534.479 197.67 534.43 198.257Q534.381 198.844 534.301 199.428Q534.221 200.011 534.111 200.59Q534.001 201.169 533.861 201.741Q533.721 202.313 533.552 202.877Q533.382 203.441 533.184 203.995Q532.985 204.55 532.758 205.093Q532.531 205.637 532.276 206.168Q532.02 206.699 531.738 207.216Q531.456 207.732 531.147 208.234C527.54 214.171 521.909 217.772 515.233 219.318C509.447 219.915 504.241 219.051 499.399 215.612Q498.91 215.266 498.44 214.897Q497.969 214.527 497.517 214.135Q497.065 213.743 496.632 213.329Q496.2 212.915 495.789 212.48Q495.378 212.045 494.989 211.59Q494.599 211.135 494.233 210.662Q493.867 210.189 493.524 209.698Q493.182 209.207 492.864 208.7Q492.546 208.193 492.253 207.67Q491.961 207.148 491.694 206.612Q491.428 206.076 491.189 205.528Q490.949 204.979 490.737 204.419Q490.525 203.86 490.34 203.29Q490.156 202.721 490 202.143Q489.844 201.565 489.717 200.98Q489.589 200.395 489.491 199.805C488.514 193.706 489.911 187.084 493.726 182.166C497.431 177.391 502.692 175.026 508.539 174.159Z"
     id="path15" />
  <path
     fill="#0C1E44"
     d="M469.889 201.862Q469.494 214.984 469.89 228.106C449.537 234.068 428.823 239.079 408.303 244.464L280.284 278.331C268.736 281.49 256.735 283.617 245.321 287.095C242.929 294.742 239.034 300.597 231.819 304.468C230.012 305.438 228.127 306.143 226.084 306.393C224.67 308.314 225.517 320.725 225.608 323.846C225.591 352.57 226.951 658.418 225.173 661.42L223.817 662.017C221.814 661.826 219.813 661.953 217.805 662.023C217.22 661.283 217.134 660.669 217.079 659.744C216.364 647.81 217.028 635.453 217.016 623.47L216.962 548.449L217.088 316.763C216.961 313.795 218.147 310 217.007 307.295C215.508 306.021 214.333 306.023 212.426 305.642Q210.349 304.415 208.295 303.152C202.47 299.492 198.631 294.072 197.219 287.303Q197.083 286.667 196.98 286.025Q196.877 285.383 196.806 284.737Q196.735 284.09 196.697 283.441Q196.659 282.792 196.654 282.142Q196.648 281.492 196.676 280.842Q196.703 280.193 196.763 279.545Q196.823 278.898 196.916 278.254Q197.009 277.611 197.134 276.973Q197.259 276.334 197.416 275.704Q197.573 275.073 197.762 274.45Q197.95 273.828 198.17 273.216Q198.39 272.604 198.64 272.004Q198.89 271.404 199.171 270.817Q199.451 270.231 199.76 269.659Q200.07 269.087 200.408 268.531Q200.746 267.976 201.111 267.438Q201.464 266.921 201.844 266.424Q202.224 265.926 202.628 265.449Q203.033 264.972 203.462 264.516Q203.891 264.061 204.344 263.628Q204.796 263.195 205.27 262.787Q205.743 262.378 206.238 261.994Q206.732 261.611 207.246 261.253Q207.76 260.896 208.291 260.565Q208.822 260.235 209.37 259.932Q209.918 259.63 210.481 259.356Q211.044 259.082 211.62 258.838Q212.196 258.594 212.784 258.38Q213.372 258.166 213.971 257.983Q214.569 257.799 215.176 257.647Q215.783 257.495 216.397 257.375Q217.011 257.254 217.631 257.166C225.891 255.911 233.013 258.832 239.424 263.701Q354.497 232.184 469.889 201.862Z"
     id="path16" />
  <path
     fill="#FBFBFA"
     d="M217.787 265.567C221.1 265.317 224.068 265.143 227.238 266.406C231.33 268.037 234.441 271.25 236.122 275.307C237.908 279.616 237.997 284.658 236.037 288.927C233.988 293.393 230.448 295.905 225.925 297.478C222.216 297.994 218.579 297.85 215.08 296.4C211.091 294.748 207.937 291.643 206.399 287.589C204.775 283.307 204.869 277.977 206.945 273.86C209.279 269.232 213.101 267.154 217.787 265.567Z"
     id="path17" />
  <path
     fill="#33BDC3"
     d="M283.292 470.336C293.834 465.79 304.503 461.437 314.936 456.657C333.033 448.366 350.955 439.499 369.426 432.062L416.797 533.618C406.301 538.286 395.47 542.308 384.885 546.799Q352.276 560.591 320.154 575.483C317.219 567.861 314.653 560.051 311.922 552.35L310.789 548.625L305.981 535.79L304.297 530.947L300.086 519.226L298.219 513.594C293.075 499.256 287.895 484.856 283.292 470.336Z"
     id="path18" />
  <path
     fill="#0C1E44"
     d="M310.789 548.625C336.874 537.103 362.726 524.417 389.248 513.984L391.978 518.34C374.567 524.614 357.361 532.674 340.474 540.309C332.221 544.04 320.598 550.585 311.922 552.35L310.789 548.625Z"
     id="path19" />
  <path
     fill="#0C1E44"
     d="M373.972 479.032L375.791 484.045Q355.634 493.383 335.303 502.334C325.24 506.754 308.489 512.821 300.086 519.226L298.219 513.594Q324.532 502.282 350.505 490.211C358.343 486.58 366.453 483.286 373.972 479.032Z"
     id="path20" />
  <path
     fill="#0C1E44"
     d="M382.138 496.103L384.034 501.048C373.91 505.267 364.016 509.958 353.991 514.398C337.961 521.498 321.892 528.417 305.981 535.79L304.297 530.947C330.387 519.756 356.581 508.474 382.138 496.103Z"
     id="path21" />
  <path
     fill="#0C1E44"
     d="M785.282 108.393C787.951 102.957 791.026 98.6684 796.145 95.2999C801.503 91.7737 808.216 90.2113 814.526 91.5965C821.431 93.1123 827.579 97.5755 831.368 103.512C835.344 109.741 836.978 117.834 835.22 125.073C833.499 132.159 828.857 137.252 822.828 141.011C821.026 141.586 817.524 142.145 816.138 143.306C815.737 156.793 816.028 170.35 816.056 183.845L816.148 252.704L816.31 452.58L807.518 452.656L807.555 257.924L807.73 196.651C807.754 183.624 808.152 170.267 807.021 157.283C808.072 152.668 809.525 148.074 810.775 143.504C808.73 143.486 806.853 143.255 804.843 142.882C798.916 141.206 794.559 138.487 790.387 133.884C771.626 138.709 753.056 144.3 734.386 149.466Q676.873 165.032 619.739 181.932C598.274 188.283 576.161 193.164 554.987 200.392C555.443 190.775 555.161 180.935 555 171.31C573.859 166.631 592.619 161.109 611.332 155.868L685.581 135.48C718.762 126.521 752.754 119.58 785.282 108.393Z"
     id="path22" />
  <path
     fill="#B7EDF8"
     d="M806.709 101.082C810.401 100.657 813.892 100.915 817.287 102.55Q818.038 102.909 818.75 103.341Q819.461 103.772 820.128 104.271Q820.794 104.77 821.408 105.332Q822.021 105.894 822.577 106.514Q823.133 107.134 823.626 107.805Q824.118 108.476 824.542 109.192Q824.966 109.908 825.318 110.662Q825.67 111.417 825.946 112.202Q826.212 112.977 826.399 113.774Q826.587 114.572 826.695 115.384Q826.803 116.196 826.83 117.015Q826.858 117.833 826.804 118.651Q826.75 119.468 826.616 120.276Q826.482 121.084 826.269 121.875Q826.056 122.666 825.766 123.432Q825.475 124.198 825.111 124.932C822.82 129.57 819.078 132.345 814.304 134.057C810.603 134.73 807.18 134.743 803.694 133.156C799.668 131.323 796.77 127.828 795.28 123.703C793.644 119.172 793.672 114.069 795.859 109.726C798.17 105.138 801.968 102.672 806.709 101.082Z"
     id="path23" />
  <path
     fill="#D16143"
     d="M706.07 452.412C711.063 440.558 714.673 427.902 718.854 415.727Q732.354 376.944 745.386 338.002L786.398 218.226C793.295 197.976 800.778 177.73 807.021 157.283C808.152 170.267 807.754 183.624 807.73 196.651L807.555 257.924L807.518 452.656C796.79 453.024 708.368 453.284 706.07 452.412Z"
     id="path24" />
  <path
     fill="#D16143"
     d="M816.138 143.306C817.718 150.201 820.484 156.903 822.859 163.56Q827.383 176.442 831.742 189.381L848.483 239.209C855.457 259.381 862.716 279.412 869.388 299.694C872.885 310.328 877.844 321.12 880.316 332.006C883.805 339.238 886.319 347.112 888.955 354.689L900.016 386.686Q906.958 406.767 914.16 426.756C917.272 435.378 920.696 444.022 923.436 452.762C915.051 451.533 903.723 452.469 895.054 452.479L835.502 452.479L822.047 452.602L816.31 452.58L816.148 252.704L816.056 183.845C816.028 170.35 815.737 156.793 816.138 143.306Z"
     id="path25" />
  <path
     fill="#079EC6"
     d="M869.856 327.558Q875.031 329.911 880.316 332.006C883.805 339.238 886.319 347.112 888.955 354.689L900.016 386.686Q906.958 406.767 914.16 426.756C917.272 435.378 920.696 444.022 923.436 452.762C915.051 451.533 903.723 452.469 895.054 452.479L835.502 452.479C835.91 448.554 837.819 444.06 838.922 440.247L846.132 414.757Q858.528 371.303 869.856 327.558Z"
     id="path26" />
  <path
     fill="#F79541"
     d="M93.2678 661.99L95.9578 662.014L101.136 661.969C140.002 661.993 178.948 661.43 217.805 662.023C219.813 661.953 221.814 661.826 223.817 662.017L341.99 661.952C343.213 662.114 344.431 662.303 345.667 662.338C338.838 671.41 332.274 680.605 324.594 688.995Q322.967 690.765 321.303 692.5Q319.638 694.234 317.936 695.932Q316.234 697.63 314.495 699.29Q312.756 700.95 310.982 702.572Q309.207 704.194 307.398 705.777Q305.588 707.36 303.745 708.903Q301.901 710.446 300.024 711.948Q298.148 713.451 296.238 714.912Q294.329 716.373 292.389 717.792Q290.448 719.212 288.477 720.588Q286.506 721.965 284.506 723.298Q282.505 724.631 280.476 725.921Q278.447 727.21 276.391 728.455Q274.334 729.7 272.25 730.899Q270.167 732.099 268.058 733.253Q265.949 734.407 263.815 735.515Q261.682 736.622 259.524 737.683Q257.367 738.744 255.187 739.758Q253.007 740.771 250.805 741.737Q248.604 742.703 246.382 743.621Q244.16 744.538 241.918 745.407Q239.677 746.276 237.417 747.096Q235.157 747.916 232.879 748.687Q230.602 749.457 228.309 750.178Q226.015 750.898 223.706 751.569Q221.398 752.239 219.075 752.859Q216.752 753.479 214.416 754.048Q212.081 754.617 209.733 755.135Q207.385 755.653 205.027 756.12Q202.669 756.587 200.301 757.002Q197.933 757.417 195.556 757.781Q193.18 758.144 190.796 758.456C184.432 759.349 177.553 759.306 171.326 760.623C160.025 758.018 148.043 751.38 138.129 745.449C114.612 731.38 94.9299 709.796 84.7458 684.128C81.8867 676.922 80.0461 669.474 78.1774 661.969L93.2678 661.99Z"
     id="path27" />
  <path
     fill="#F8C57D"
     d="M101.136 661.969C140.002 661.993 178.948 661.43 217.805 662.023C217.567 668.647 210.788 677.814 206.656 682.717C195.516 695.936 178.419 704.202 161.286 705.629C143.922 707.076 125.82 702.702 112.379 691.247C103.875 683.999 96.8636 673.348 95.9578 662.014L101.136 661.969Z"
     id="path28" />
  <path
     fill="#FBFBFA"
     d="M618.968 603.934L799.516 603.971C832.9 603.959 866.612 603.068 899.962 604.382C887.575 619.897 885.102 641.15 887.237 660.367C887.901 666.35 889.294 673.087 893.137 677.892C878.241 678.974 861.456 678.065 846.395 678.058L753.754 678.012L672.209 677.939C657.171 677.933 641.569 678.85 626.614 677.409C628.78 674.291 630.327 671.378 631.267 667.673C633.235 659.91 632.945 630.996 631.606 622.807C630.9 618.487 629.578 613.883 627.216 610.167C625.725 607.82 624.155 606.131 621.4 605.497L618.968 603.934Z"
     id="path29" />
  <path
     fill="#D16143"
     d="M225.608 323.846C227.265 333.493 234.126 348.989 237.52 359.107L265.921 442.986C269.297 453.064 273.171 463.076 276.219 473.248C280.538 488.483 286.659 503.433 292.045 518.333Q302.638 548.431 313.589 578.4L319.881 596.191C322.692 607.014 326.536 617.69 330.026 628.314C333.714 639.543 337.118 651.173 341.99 661.952L223.817 662.017L225.173 661.42C226.951 658.418 225.591 352.57 225.608 323.846Z"
     id="path30" />
  <path
     fill="#098097"
     d="M276.219 473.248C280.538 488.483 286.659 503.433 292.045 518.333Q302.638 548.431 313.589 578.4L319.881 596.191C311.271 599.806 303.094 603.794 294.889 608.256C289.984 594.49 283.063 581.089 276.898 567.829C269.718 552.386 262.954 536.774 255.853 521.303C250.847 510.4 245.389 499.745 240.732 488.679C245.909 486.733 250.886 484.456 255.897 482.129C262.358 478.713 269.362 475.766 276.219 473.248Z"
     id="path31" />
  <path
     fill="#079EC6"
     d="M276.219 473.248C280.538 488.483 286.659 503.433 292.045 518.333Q302.638 548.431 313.589 578.4C310.541 580.151 307.398 581.306 304.099 582.492C299.252 572.723 294.922 562.793 290.26 552.946L271.5 513.928C266.498 503.428 261.886 492.073 255.897 482.129C262.358 478.713 269.362 475.766 276.219 473.248Z"
     id="path32" />
  <path
     fill="#D16143"
     d="M101.136 661.969Q140.042 548.632 177.217 434.716Q191.319 391.444 206.353 348.487C210.017 337.962 212.679 326.999 217.088 316.763L216.962 548.449L217.016 623.47C217.028 635.453 216.364 647.81 217.079 659.744C217.134 660.669 217.22 661.283 217.805 662.023C178.948 661.43 140.002 661.993 101.136 661.969Z"
     id="path33" />
  <path
     fill="#F79541"
     d="M698.335 452.839C700.496 453.027 704.314 453.701 706.07 452.412C708.368 453.284 796.79 453.024 807.518 452.656L816.31 452.58L822.047 452.602L835.502 452.479L895.054 452.479C903.723 452.469 915.051 451.533 923.436 452.762Q924.325 453.026 925.24 453.182Q926.154 453.338 927.081 453.382Q928.008 453.427 928.933 453.36Q929.858 453.293 930.769 453.115C932.046 454.492 945.532 453.75 948.459 454.073C945.336 462.522 942.303 471.049 938.421 479.188C923.88 509.672 894.39 533.375 862.757 544.469C825.044 557.697 782.141 556.276 745.991 538.637C710.711 521.423 687.713 488.803 675.187 452.519C678.271 452.439 681.331 452.485 684.415 452.574C689.012 452.605 693.764 452.386 698.335 452.839Z"
     id="path34" />
  <path
     fill="#F8C57D"
     d="M698.335 452.839C700.496 453.027 704.314 453.701 706.07 452.412C708.368 453.284 796.79 453.024 807.518 452.656L816.31 452.58L822.047 452.602C822.276 453.009 822.156 452.72 822.141 453.536C808.739 469.784 792.984 483.12 772.99 490.594C755.804 497.019 737.212 497.925 720.31 490.147C705.255 483.219 690.127 468.276 684.415 452.574C689.012 452.605 693.764 452.386 698.335 452.839Z"
     id="path35" />
  <path
     fill="#0C1E44"
     d="M488.949 244.001C504.414 243.335 520.048 243.837 535.524 243.933L535.817 631.823L535.57 757.362C535.601 777.277 535.227 797.364 535.963 817.258C529.674 816.612 523.04 817.009 516.702 817.012C507.649 817.017 498.478 816.74 489.446 817.276L489.188 383.101C489.168 336.746 488.425 290.35 488.949 244.001Z"
     id="path36" />
  <path
     fill="#33BDC3"
     d="M601.598 683.032C598.681 683.15 592.211 684.291 589.756 683.022C588.574 682.412 588.024 681.834 587.717 680.508C587.439 679.306 588.047 678.311 588.677 677.381C589.827 676.739 590.75 676.382 592.083 676.337C594.956 676.241 597.939 676.797 600.84 676.851C609.438 677.013 618.018 677.077 626.614 677.409C641.569 678.85 657.171 677.933 672.209 677.939L753.754 678.012L846.395 678.058C861.456 678.065 878.241 678.974 893.137 677.892C901.795 680.813 907.272 687.666 911.226 695.611C917.944 709.112 918.928 723.494 913.962 737.738C910.466 747.763 903.311 757.742 893.547 762.388Q892.037 763.107 890.506 763.78C876.282 764.702 861.608 763.97 847.344 763.939L769.15 763.932C757.805 763.935 746.008 763.289 734.719 764.072L677.049 764.129C667.197 764.137 657.129 763.732 647.307 764.369C644.48 764.576 641.626 764.716 638.809 765.016C632.278 764.238 625.563 764.707 618.995 764.771L589.574 764.953L589.34 758.021C593.568 758 597.797 757.905 602.009 758.334C601.542 733.24 602.154 708.132 601.598 683.032Z"
     id="path37" />
  <path
     fill="#FBFBFA"
     d="M601.598 683.032C609.571 682.939 627.492 681.63 634.523 683.597C637.571 684.45 640.312 686.256 642.595 688.416C651.304 696.656 654.539 710.192 654.642 721.763C654.754 734.381 651.082 749.225 642.077 758.539C634.086 758.905 626.053 758.703 618.056 758.65C612.789 758.615 607.243 758.862 602.009 758.334C601.542 733.24 602.154 708.132 601.598 683.032Z"
     id="path38" />
  <path
     fill="#FBFBFA"
     d="M890.506 763.78C908.81 764.282 927.189 763.917 945.505 764.018L945.56 839.276C947.638 839.409 949.792 839.31 951.635 840.371C952.336 841.624 952.311 843.423 951.989 844.803C951.747 845.837 951.264 846.731 950.336 847.289C946.513 849.589 904.794 847.39 896.437 848.489C907.555 855.009 914.98 863.523 918.336 876.169C921.373 887.616 920.053 900.982 914.014 911.258C911.732 915.14 908.813 918.539 905.609 921.687C902 924.727 897.534 928.142 892.839 929.181C886.39 930.609 878.969 930.061 872.369 930.032L844.503 929.93Q806.479 930.283 768.455 929.938C747.946 929.833 727.32 929.429 706.819 929.901C702.536 927.661 684.755 914.858 681.484 911.652C683.05 905.395 683.444 897.954 683.703 891.504C684.443 873.048 680.298 862.023 667.903 848.531C660.956 848.284 654.008 848.738 647.05 848.366C647.07 846.409 647.238 844.447 647.359 842.494C647.754 835.108 647.474 827.556 647.472 820.151L647.445 778.04L647.307 764.369C657.129 763.732 667.197 764.137 677.049 764.129L734.719 764.072C746.008 763.289 757.805 763.935 769.15 763.932L847.344 763.939C861.608 763.97 876.282 764.702 890.506 763.78Z"
     id="path39" />
  <path
     fill="#079EC6"
     d="M737.275 838.968L872.551 838.963L918.695 839.026C927.615 839.045 936.657 838.785 945.56 839.276C947.638 839.409 949.792 839.31 951.635 840.371C952.336 841.624 952.311 843.423 951.989 844.803C951.747 845.837 951.264 846.731 950.336 847.289C946.513 849.589 904.794 847.39 896.437 848.489L667.903 848.531C660.956 848.284 654.008 848.738 647.05 848.366C647.07 846.409 647.238 844.447 647.359 842.494Q690.249 842.83 733.139 842.48L737.275 838.968Z"
     id="path40" />
  <path
     fill="#085169"
     d="M647.307 764.369C657.129 763.732 667.197 764.137 677.049 764.129L734.719 764.072C743.769 772.378 745.372 784.839 745.887 796.527C746.518 810.845 746.03 826.948 737.275 838.968L733.139 842.48Q690.249 842.83 647.359 842.494C647.754 835.108 647.474 827.556 647.472 820.151L647.445 778.04L647.307 764.369Z"
     id="path41" />
  <path
     fill="#FBFBFA"
     d="M890.506 763.78C908.81 764.282 927.189 763.917 945.505 764.018L945.56 839.276C936.657 838.785 927.615 839.045 918.695 839.026L872.551 838.963L737.275 838.968C746.03 826.948 746.518 810.845 745.887 796.527C745.372 784.839 743.769 772.378 734.719 764.072C746.008 763.289 757.805 763.935 769.15 763.932L847.344 763.939C861.608 763.97 876.282 764.702 890.506 763.78Z"
     id="path42" />
  <path
     fill="#B24434"
     d="M408.176 841.511C415.294 842.123 422.512 841.971 429.654 842.009L592.387 842.052C598.415 841.977 610.635 840.948 616.12 842.26L622.041 848.63C627.263 847.437 641.158 848.342 647.05 848.366C654.008 848.738 660.956 848.284 667.903 848.531C680.298 862.023 684.443 873.048 683.703 891.504C683.444 897.954 683.05 905.395 681.484 911.652C684.755 914.858 702.536 927.661 706.819 929.901C727.32 929.429 747.946 929.833 768.455 929.938Q806.479 930.283 844.503 929.93L872.369 930.032C878.969 930.061 886.39 930.609 892.839 929.181C897.534 928.142 902 924.727 905.609 921.687L906.547 921.764C913.118 922.254 936.229 926.9 940.354 931.557C941.3 932.625 941.295 932.878 941.221 934.206C938.705 937.851 930.913 939.464 926.799 940.497C909.342 944.879 891.547 946.92 873.718 949.095C837.054 953.568 800.368 956.08 763.515 958.322Q676.695 963.213 589.747 964.6Q502.8 965.987 415.868 963.867Q376.873 963.335 337.905 961.793Q297.793 959.936 257.751 956.933C232.505 955.185 207.351 953.401 182.204 950.514C167.346 948.809 120.293 944.02 109.061 936.719C107.678 935.821 107.151 935.029 106.805 933.443C107.044 932.753 107.277 932.156 107.797 931.62C112.716 926.549 125.813 924.62 132.516 923.427C148.051 920.662 163.961 919.442 179.667 918.002Q214.801 914.453 250.066 912.631Q283.13 910.622 316.233 909.431C327.166 908.951 338.113 908.133 349.055 907.994C358.374 896.816 368.54 886.144 378.232 875.274C388.229 864.063 397.93 852.486 408.176 841.511Z"
     id="path43" />
  <path
     fill="#021431"
     d="M681.075 911.596L681.484 911.652C684.755 914.858 702.536 927.661 706.819 929.901C710.779 933.274 715.133 936.098 718.54 940.09C702.505 940.568 686.308 940.091 670.26 940.068L586.159 940.14L307.403 940.078Q317.921 932.933 328.26 925.531C334.137 921.377 340.392 917.351 345.52 912.27C359.25 913.54 373.534 912.705 387.336 912.657L459.291 912.527Q567.629 913.222 675.966 912.4C677.777 912.373 679.447 912.497 681.075 911.596Z"
     id="path44" />
  <path
     fill="#0C1E44"
     d="M408.176 841.511C415.294 842.123 422.512 841.971 429.654 842.009L592.387 842.052C598.415 841.977 610.635 840.948 616.12 842.26L622.041 848.63C627.263 847.437 641.158 848.342 647.05 848.366C654.008 848.738 660.956 848.284 667.903 848.531C680.298 862.023 684.443 873.048 683.703 891.504C683.444 897.954 683.05 905.395 681.484 911.652L681.075 911.596C679.447 912.497 677.777 912.373 675.966 912.4Q567.629 913.222 459.291 912.527L387.336 912.657C373.534 912.705 359.25 913.54 345.52 912.27L349.055 907.994C358.374 896.816 368.54 886.144 378.232 875.274C388.229 864.063 397.93 852.486 408.176 841.511Z"
     id="path45" />
  <path
     fill="#D16143"
     d="M647.05 848.366C654.008 848.738 660.956 848.284 667.903 848.531C680.298 862.023 684.443 873.048 683.703 891.504C683.444 897.954 683.05 905.395 681.484 911.652L681.075 911.596C674.56 903.972 667.06 896.876 660.198 889.538C647.457 875.913 634.924 862.127 622.041 848.63C627.263 847.437 641.158 848.342 647.05 848.366Z"
     id="path46" />
</svg>
